<?xml version="1.0" encoding="UTF-8"?>
<svg width="1250px" height="1126px" viewBox="0 0 1250 1126" version="1.1" xmlns="http://www.w3.org/2000/svg" xmlns:xlink="http://www.w3.org/1999/xlink">
    <title>Group 6</title>
    <defs>
        <linearGradient x1="98.4792203%" y1="26.4973987%" x2="17.4922261%" y2="78.3332316%" id="linearGradient-1">
            <stop stop-color="#E0EEF8" offset="0%"></stop>
            <stop stop-color="#B7DEFD" offset="100%"></stop>
        </linearGradient>
    </defs>
    <g id="Page-1" stroke="none" stroke-width="1" fill="none" fill-rule="evenodd">
        <g id="Updated-home-page-2" transform="translate(-816.000000, 167.000000)" fill-rule="nonzero">
            <g id="illustration" transform="translate(0.000000, -167.000000)">
                <g transform="translate(816.377407, 0.000000)" id="Group-6">
                    <g id="Group-10">
                        <path d="M1001.82503,0 C1016.65936,96.9134192 987.103837,164.147575 913.158448,201.702467 C802.240365,258.034805 752.890126,167.956902 649.181227,201.702467 C545.472328,235.448032 583.521775,297.635402 481.223977,338.177784 C378.926179,378.720166 355.544988,284.135988 271.331006,346.902583 C187.117024,409.669177 265.112757,456.858505 211.312666,533.151466 C157.512576,609.444426 58.2608113,609.444426 25.7373738,678.86653 C-6.78606371,748.288633 14.3451135,796.848997 77.889193,852.693579 C141.433272,908.538161 270.216132,957.205521 388.565454,957.205521 C506.914776,957.205521 536.252807,858.475846 668.927089,865.723174 C801.601372,872.970503 806.173681,984.211229 913.158448,977.827996 C984.481626,973.572507 1051.51054,927.347616 1114.24519,839.153323 L1114.24519,12.702467 L1001.82503,0 Z" id="Path-2" fill="#EEF7FE"></path>
                        <path d="M991.202437,126.297533 C1006.03677,223.210952 976.481244,290.445108 902.535855,328 C791.617772,384.332338 742.267533,294.254435 638.558634,328 C534.849735,361.745565 572.899182,423.932935 470.601384,464.475317 C368.303585,505.017699 344.922395,410.433521 260.708413,473.200116 C176.494431,535.96671 254.490164,583.156038 200.690073,659.448999 C146.889983,735.741959 47.6382181,735.741959 15.1147806,805.164063 C-17.4086569,874.586166 3.72252034,923.14653 67.2665998,978.991112 C130.810679,1034.83569 259.593538,1083.50305 377.942861,1083.50305 C496.292183,1083.50305 525.630214,984.773379 658.304496,992.020707 C790.978778,999.268036 795.551088,1110.50876 902.535855,1104.12553 C973.859033,1099.87004 1089.46332,1036.06414 1249.34871,912.707839 L1240.0773,126.297533 L991.202437,126.297533 Z" id="Path-2" fill="url(#linearGradient-1)"></path>
                    </g>
                    <path d="M1107.82503,147 C1122.65936,243.913419 1093.10384,311.147575 1019.15845,348.702467 C908.240365,405.034805 858.890126,314.956902 755.181227,348.702467 C651.472328,382.448032 689.521775,444.635402 587.223977,485.177784 C484.926179,525.720166 461.544988,431.135988 377.331006,493.902583 C293.117024,556.669177 371.112757,603.858505 317.312666,680.151466 C263.512576,756.444426 164.260811,756.444426 131.737374,825.86653 C99.2139363,895.288633 120.345113,943.848997 183.889193,999.693579 C247.433272,1055.53816 376.216132,1104.20552 494.565454,1104.20552 C612.914776,1104.20552 642.252807,1005.47585 774.927089,1012.72317 C907.601372,1019.9705 912.173681,1131.21123 1019.15845,1124.828 C1090.48163,1120.57251 1157.51054,1074.34762 1220.24519,986.153323 L1220.24519,159.702467 L1107.82503,147 Z" id="Path-2-Copy" fill="#EEF7FE" opacity="0.782156808"></path>
                </g>
            </g>
        </g>
    </g>
</svg>