<svg width="581" height="434" viewBox="0 0 581 434" fill="none" xmlns="http://www.w3.org/2000/svg">
<path fill-rule="evenodd" clip-rule="evenodd" d="M581 382.625H0V382.375H581V382.625Z" fill="#EBEBEB"/>
<path fill-rule="evenodd" clip-rule="evenodd" d="M97 401.625H58V401.375H97V401.625Z" fill="#EBEBEB"/>
<path fill-rule="evenodd" clip-rule="evenodd" d="M206 404.625H196V404.375H206V404.625Z" fill="#EBEBEB"/>
<path fill-rule="evenodd" clip-rule="evenodd" d="M153 390.625H98V390.375H153V390.625Z" fill="#EBEBEB"/>
<path fill-rule="evenodd" clip-rule="evenodd" d="M519 392.624H492V392.375H519V392.624Z" fill="#EBEBEB"/>
<path fill-rule="evenodd" clip-rule="evenodd" d="M482 392.624H452V392.375H482V392.624Z" fill="#EBEBEB"/>
<path fill-rule="evenodd" clip-rule="evenodd" d="M429 396.625H353V396.375H429V396.625Z" fill="#EBEBEB"/>
<path fill-rule="evenodd" clip-rule="evenodd" d="M530.367 2.4519C533.865 2.4519 536.709 5.30023 536.709 8.79987V324.491C536.709 327.991 533.865 330.839 530.367 330.839H305.978C302.483 330.839 299.637 327.991 299.637 324.491V8.79987C299.637 5.30023 302.483 2.4519 305.978 2.4519H530.367ZM305.978 331.13H530.367C534.024 331.13 537 328.151 537 324.491V8.79987C537 5.14089 534.024 2.16113 530.367 2.16113H305.978C302.323 2.16113 299.347 5.14089 299.347 8.79987V324.491C299.347 328.151 302.323 331.13 305.978 331.13Z" fill="#D6E7F3"/>
<path fill-rule="evenodd" clip-rule="evenodd" d="M506.98 277.743H337.227C333.107 277.743 329.767 274.41 329.767 270.299V23.6544C329.767 19.5429 333.107 16.2107 337.227 16.2107H506.98C511.101 16.2107 514.44 19.5429 514.44 23.6544V270.299C514.44 274.41 511.101 277.743 506.98 277.743Z" fill="#E4EFF7"/>
<path fill-rule="evenodd" clip-rule="evenodd" d="M506.832 277.601C506.832 277.601 507.024 277.585 507.403 277.563C507.781 277.538 508.344 277.451 509.063 277.241C509.772 277.008 510.634 276.614 511.498 275.916C512.35 275.217 513.207 274.194 513.734 272.83C514.011 272.153 514.168 271.384 514.217 270.572C514.26 269.758 514.227 268.89 514.235 267.985C514.232 266.173 514.23 264.193 514.227 262.047C514.222 257.754 514.216 252.802 514.21 247.227C514.197 224.925 514.177 192.657 514.153 152.786C514.147 132.85 514.14 111.011 514.132 87.5682C514.129 75.8467 514.126 63.7242 514.123 51.2364C514.121 44.9924 514.12 38.658 514.119 32.237C514.114 29.0277 514.11 25.7966 514.106 22.5453C514.074 20.9504 513.464 19.3862 512.462 18.1421C511.438 16.9158 510.018 16.0039 508.445 15.6587C507.657 15.4801 506.858 15.4639 506.027 15.4736C505.203 15.4736 504.377 15.4736 503.551 15.4744C501.897 15.4744 500.238 15.4744 498.575 15.4752C495.248 15.4752 491.901 15.476 488.536 15.4769C481.804 15.4777 474.995 15.4785 468.113 15.4793C454.35 15.4809 440.297 15.4825 425.991 15.4841C397.379 15.4849 367.756 15.4857 337.414 15.4874C335.558 15.4817 333.721 16.2149 332.388 17.4994C331.044 18.771 330.222 20.5705 330.143 22.4144C330.106 26.1766 330.133 29.9582 330.124 33.7107C330.124 41.2229 330.124 48.6851 330.124 56.0939C330.123 70.9099 330.122 85.5101 330.122 99.8556C330.118 128.546 330.114 156.221 330.111 182.584C330.105 208.946 330.1 233.998 330.094 257.443C330.093 260.373 330.093 263.279 330.092 266.159C330.099 267.595 330.075 269.038 330.107 270.452C330.154 271.852 330.634 273.22 331.429 274.353C332.225 275.489 333.346 276.376 334.61 276.906C335.247 277.164 335.914 277.331 336.591 277.415C337.266 277.474 337.963 277.46 338.655 277.461C341.423 277.462 344.164 277.462 346.878 277.464C357.733 277.468 368.15 277.471 378.093 277.475C417.865 277.499 450.048 277.518 472.292 277.532C483.411 277.547 492.046 277.558 497.903 277.566C500.829 277.573 503.06 277.58 504.563 277.584C506.064 277.589 506.832 277.601 506.832 277.601C506.832 277.601 506.064 277.614 504.563 277.619C503.06 277.623 500.829 277.63 497.903 277.638C492.046 277.645 483.411 277.656 472.292 277.671C450.048 277.685 417.865 277.704 378.093 277.728C368.15 277.732 357.733 277.736 346.878 277.74C344.164 277.74 341.423 277.741 338.655 277.742C337.964 277.741 337.271 277.757 336.56 277.694C335.857 277.609 335.164 277.436 334.502 277.169C333.188 276.618 332.023 275.698 331.195 274.518C330.368 273.342 329.868 271.919 329.819 270.465C329.785 269.026 329.809 267.601 329.801 266.159C329.801 263.279 329.8 260.373 329.799 257.443C329.793 233.998 329.789 208.946 329.782 182.584C329.779 156.221 329.776 128.546 329.772 99.8556C329.771 85.5101 329.77 70.9099 329.769 56.0939C329.769 48.6851 329.769 41.2229 329.768 33.7107C329.776 29.9509 329.75 26.1944 329.787 22.3974C329.87 20.4621 330.733 18.5738 332.142 17.2399C333.54 15.894 335.47 15.1228 337.414 15.1301C367.756 15.1309 397.379 15.1325 425.991 15.1333C440.297 15.1349 454.35 15.1365 468.113 15.1381C474.995 15.1389 481.804 15.1398 488.536 15.1406C491.901 15.1414 495.248 15.1422 498.575 15.1422C500.238 15.143 501.897 15.143 503.551 15.143C504.377 15.143 505.203 15.1438 506.027 15.1438C506.842 15.1333 507.699 15.1495 508.518 15.3378C510.163 15.7 511.646 16.6522 512.715 17.9343C513.761 19.2334 514.398 20.8704 514.43 22.5356C514.434 25.7902 514.437 29.0245 514.44 32.237C514.44 38.658 514.438 44.9924 514.436 51.2364C514.433 63.7242 514.43 75.8467 514.427 87.5682C514.419 111.011 514.412 132.85 514.406 152.786C514.382 192.657 514.362 224.925 514.348 247.227C514.342 252.802 514.338 257.754 514.332 262.047C514.33 264.193 514.327 266.173 514.324 267.985C514.312 268.892 514.343 269.753 514.298 270.577C514.244 271.397 514.083 272.173 513.801 272.855C513.264 274.231 512.394 275.259 511.533 275.959C510.657 276.656 509.789 277.047 509.073 277.276C508.35 277.482 507.784 277.562 507.404 277.582C507.024 277.598 506.832 277.601 506.832 277.601Z" fill="#58B5FC"/>
<path fill-rule="evenodd" clip-rule="evenodd" d="M469.448 16.2107L472.322 26.3649V31.3407H469.082L469.448 16.2107Z" fill="#46ACFB"/>
<path fill-rule="evenodd" clip-rule="evenodd" d="M338.406 27.0178V266.936H464.221H506.88V27.0178H338.406Z" fill="white"/>
<path fill-rule="evenodd" clip-rule="evenodd" d="M506.722 223.764C506.722 223.764 506.713 223.452 506.709 222.839C506.706 222.222 506.703 221.308 506.697 220.104C506.691 217.688 506.683 214.11 506.672 209.449C506.662 200.122 506.647 186.463 506.628 169.122C506.612 134.434 506.59 85.0234 506.564 26.1156L506.722 26.2747C457.045 26.2803 399.558 26.2868 338.586 26.2941L338.763 26.1156V26.3296C338.746 118.854 338.731 203.349 338.72 266.802L338.586 266.668C377.265 266.692 408.654 266.713 430.377 266.727C441.235 266.743 449.676 266.754 455.407 266.762C458.268 266.771 460.453 266.778 461.925 266.782C463.395 266.788 464.147 266.802 464.147 266.802C464.147 266.802 463.395 266.816 461.925 266.821C460.453 266.825 458.268 266.832 455.407 266.841C449.676 266.849 441.235 266.861 430.377 266.877C408.654 266.89 377.265 266.911 338.586 266.936H338.451V266.802C338.439 203.349 338.423 118.854 338.406 26.3296V26.1156V25.9371H338.586C399.558 25.9444 457.045 25.9517 506.722 25.9573H506.88V26.1156C506.854 85.0234 506.832 134.434 506.816 169.122C506.797 186.463 506.782 200.122 506.772 209.449C506.761 214.11 506.753 217.688 506.747 220.104C506.741 221.308 506.738 222.222 506.735 222.839C506.731 223.452 506.722 223.764 506.722 223.764Z" fill="#40A9FB"/>
<path fill-rule="evenodd" clip-rule="evenodd" d="M468.002 34.5828H383.765V14.8725C383.765 12.0302 386.029 9.72644 388.823 9.72644H462.944C465.737 9.72644 468.002 12.0302 468.002 14.8725V34.5828Z" fill="#D6E7F3"/>
<mask id="mask0_0_2011" style="mask-type:alpha" maskUnits="userSpaceOnUse" x="415" y="0" width="22" height="19">
<path fill-rule="evenodd" clip-rule="evenodd" d="M415.084 0H436.683V18.3721H415.084V0Z" fill="white"/>
</mask>
<g mask="url(#mask0_0_2011)">
<path fill-rule="evenodd" clip-rule="evenodd" d="M436.683 -0.000488281H415.084L417.609 18.3721H433.878L436.683 -0.000488281Z" fill="#46ACFB"/>
</g>
<path fill-rule="evenodd" clip-rule="evenodd" d="M462.602 9.18611C462.602 9.31796 445.919 9.42495 425.346 9.42495C404.764 9.42495 388.085 9.31796 388.085 9.18611C388.085 9.05426 404.764 8.94727 425.346 8.94727C445.919 8.94727 462.602 9.05426 462.602 9.18611Z" fill="#46ACFB"/>
<path fill-rule="evenodd" clip-rule="evenodd" d="M385.385 29.1793C385.253 29.1793 385.146 25.7923 385.146 21.6147C385.146 17.4363 385.253 14.0493 385.385 14.0493C385.516 14.0493 385.623 17.4363 385.623 21.6147C385.623 25.7923 385.516 29.1793 385.385 29.1793Z" fill="#46ACFB"/>
<path fill-rule="evenodd" clip-rule="evenodd" d="M465.302 28.0986C465.17 28.0986 465.063 24.9534 465.063 21.0739C465.063 17.1937 465.17 14.0493 465.302 14.0493C465.433 14.0493 465.54 17.1937 465.54 21.0739C465.54 24.9534 465.433 28.0986 465.302 28.0986Z" fill="#46ACFB"/>
<path fill-rule="evenodd" clip-rule="evenodd" d="M461.522 30.8004C461.522 30.9322 444.356 31.0392 423.186 31.0392C402.007 31.0392 384.845 30.9322 384.845 30.8004C384.845 30.6685 402.007 30.5615 423.186 30.5615C444.356 30.5615 461.522 30.6685 461.522 30.8004Z" fill="#46ACFB"/>
<path fill-rule="evenodd" clip-rule="evenodd" d="M392.404 77.8113H485.281V72.4077H392.404V77.8113Z" fill="#E4EFF7"/>
<path fill-rule="evenodd" clip-rule="evenodd" d="M392.404 89.6991H434.523V84.2955H392.404V89.6991Z" fill="#E4EFF7"/>
<path fill-rule="evenodd" clip-rule="evenodd" d="M379.547 91.8606H364.224C362.491 91.8606 361.086 90.4549 361.086 88.7199V73.3871C361.086 71.6529 362.491 70.2463 364.224 70.2463H379.547C381.28 70.2463 382.685 71.6529 382.685 73.3871V88.7199C382.685 90.4549 381.28 91.8606 379.547 91.8606Z" fill="url(#paint0_linear_0_2011)"/>
<path fill-rule="evenodd" clip-rule="evenodd" d="M372.305 86.457L366.485 81.547L368.055 79.3296L371.957 82.622L377.508 75.6499L379.445 77.4885L372.305 86.457Z" fill="white"/>
<path fill-rule="evenodd" clip-rule="evenodd" d="M392.404 112.394H485.281V106.991H392.404V112.394Z" fill="#E4EFF7"/>
<path fill-rule="evenodd" clip-rule="evenodd" d="M392.404 124.282H434.523V118.878H392.404V124.282Z" fill="#E4EFF7"/>
<path fill-rule="evenodd" clip-rule="evenodd" d="M379.547 127.524H364.224C362.491 127.524 361.086 126.118 361.086 124.383V109.05C361.086 107.316 362.491 105.91 364.224 105.91H379.547C381.28 105.91 382.685 107.316 382.685 109.05V124.383C382.685 126.118 381.28 127.524 379.547 127.524Z" fill="url(#paint1_linear_0_2011)"/>
<path fill-rule="evenodd" clip-rule="evenodd" d="M372.305 121.04L366.485 116.13L368.055 113.912L371.957 117.205L377.508 110.233L379.445 112.071L372.305 121.04Z" fill="white"/>
<path fill-rule="evenodd" clip-rule="evenodd" d="M392.404 151.3H485.281V145.896H392.404V151.3Z" fill="#E4EFF7"/>
<path fill-rule="evenodd" clip-rule="evenodd" d="M392.404 163.188H434.523V157.784H392.404V163.188Z" fill="#E4EFF7"/>
<path fill-rule="evenodd" clip-rule="evenodd" d="M392.404 185.883H485.281V180.479H392.404V185.883Z" fill="#E4EFF7"/>
<path fill-rule="evenodd" clip-rule="evenodd" d="M392.404 197.77H434.523V192.367H392.404V197.77Z" fill="#E4EFF7"/>
<path fill-rule="evenodd" clip-rule="evenodd" d="M379.547 165.349H364.224C362.491 165.349 361.086 163.943 361.086 162.208V146.875C361.086 145.14 362.491 143.735 364.224 143.735H379.547C381.28 143.735 382.685 145.14 382.685 146.875V162.208C382.685 163.943 381.28 165.349 379.547 165.349Z" fill="url(#paint2_linear_0_2011)"/>
<path fill-rule="evenodd" clip-rule="evenodd" d="M372.305 158.865L366.485 153.955L368.055 151.737L371.957 155.03L377.508 148.058L379.445 149.896L372.305 158.865Z" fill="white"/>
<path fill-rule="evenodd" clip-rule="evenodd" d="M363.251 179.062C361.872 179.062 360.749 180.185 360.749 181.564V197.764C360.749 199.145 361.872 200.269 363.251 200.269H379.439C380.819 200.269 381.941 199.145 381.941 197.764V181.564C381.941 180.185 380.819 179.062 379.439 179.062H363.251ZM379.439 201.013H363.251C361.462 201.013 360.006 199.555 360.006 197.764V181.564C360.006 179.774 361.462 178.318 363.251 178.318H379.439C381.229 178.318 382.685 179.774 382.685 181.564V197.764C382.685 199.555 381.229 201.013 379.439 201.013Z" fill="url(#paint3_linear_0_2011)"/>
<path fill-rule="evenodd" clip-rule="evenodd" d="M392.404 225.869H485.281V220.465H392.404V225.869Z" fill="#E4EFF7"/>
<path fill-rule="evenodd" clip-rule="evenodd" d="M392.404 237.757H434.523V232.353H392.404V237.757Z" fill="#E4EFF7"/>
<path fill-rule="evenodd" clip-rule="evenodd" d="M363.251 219.048C361.872 219.048 360.749 220.171 360.749 221.551V237.751C360.749 239.131 361.872 240.255 363.251 240.255H379.439C380.819 240.255 381.941 239.131 381.941 237.751V221.551C381.941 220.171 380.819 219.048 379.439 219.048H363.251ZM379.439 240.999H363.251C361.462 240.999 360.006 239.542 360.006 237.751V221.551C360.006 219.76 361.462 218.304 363.251 218.304H379.439C381.229 218.304 382.685 219.76 382.685 221.551V237.751C382.685 239.542 381.229 240.999 379.439 240.999Z" fill="url(#paint4_linear_0_2011)"/>
<path fill-rule="evenodd" clip-rule="evenodd" d="M380.524 59.4392H473.401V50.7935H380.524V59.4392Z" fill="#E4EFF7"/>
<path fill-rule="evenodd" clip-rule="evenodd" d="M279.022 2.4519C282.518 2.4519 285.363 5.30023 285.363 8.79987V324.491C285.363 327.991 282.518 330.839 279.022 330.839H54.6329C51.1364 330.839 48.2905 327.991 48.2905 324.491V8.79987C48.2905 5.30023 51.1364 2.4519 54.6329 2.4519H279.022ZM54.6329 331.13H279.022C282.677 331.13 285.653 328.151 285.653 324.491V8.79987C285.653 5.14089 282.677 2.16113 279.022 2.16113H54.6329C50.976 2.16113 48 5.14089 48 8.79987V324.491C48 328.151 50.976 331.13 54.6329 331.13Z" fill="#D6E7F3"/>
<path fill-rule="evenodd" clip-rule="evenodd" d="M252.025 383H68.4557V32.4568H252.025V383Z" fill="#D6E7F3"/>
<path fill-rule="evenodd" clip-rule="evenodd" d="M238.371 383H82.1093V43.8884H238.371V383Z" fill="#E4EFF7"/>
<path fill-rule="evenodd" clip-rule="evenodd" d="M182.205 84.1744H138.274V72.0146H182.205V84.1744Z" fill="white"/>
<path fill-rule="evenodd" clip-rule="evenodd" d="M118.475 192.745H94.6418C92.585 192.745 90.9187 194.413 90.9187 196.47C90.9187 198.527 92.585 200.195 94.6418 200.195H118.475C120.531 200.195 122.197 198.527 122.197 196.47C122.197 194.413 120.531 192.745 118.475 192.745Z" fill="white"/>
<path fill-rule="evenodd" clip-rule="evenodd" d="M359.448 383H280.968V251.847H359.448V383Z" fill="#F5F5F5"/>
<path fill-rule="evenodd" clip-rule="evenodd" d="M359.448 383H356.769V251.847H359.448V383Z" fill="#EBEBEB"/>
<path fill-rule="evenodd" clip-rule="evenodd" d="M385.692 242.083H350.928V235.12H385.692V242.083Z" fill="#E4EFF7"/>
<path fill-rule="evenodd" clip-rule="evenodd" d="M66 421C66 428.18 166.736 434 291 434C415.264 434 516 428.18 516 421C516 413.82 415.264 408 291 408C166.736 408 66 413.82 66 421Z" fill="#E4EFF7"/>
<path fill-rule="evenodd" clip-rule="evenodd" d="M190.962 325H179.039V283H190.962V325Z" fill="url(#paint5_linear_0_2011)"/>
<path fill-rule="evenodd" clip-rule="evenodd" d="M206 309.96H164V298.037H206V309.96Z" fill="url(#paint6_linear_0_2011)"/>
<path fill-rule="evenodd" clip-rule="evenodd" d="M234.054 381.291H355.201C363.662 381.291 370.117 374.356 369.546 365.882L349.952 75.3649C349.38 66.8901 341.989 59.9557 333.528 59.9557H212.381C203.919 59.9557 197.464 66.8901 198.035 75.3649L217.629 365.882C218.202 374.356 225.592 381.291 234.054 381.291Z" fill="#112F61"/>
<path fill-rule="evenodd" clip-rule="evenodd" d="M207.254 178.268H210.31C212.672 178.268 214.474 176.332 214.315 173.967L210.569 118.416C210.41 116.049 208.346 114.112 205.983 114.112H202.926C200.564 114.112 198.762 116.049 198.922 118.416L202.668 173.967C202.828 176.332 204.892 178.268 207.254 178.268Z" fill="#263238"/>
<path fill-rule="evenodd" clip-rule="evenodd" d="M351.729 141.21H354.779C356.71 141.21 358.185 139.628 358.055 137.693L356.701 117.631C356.571 115.697 354.883 114.112 352.951 114.112H349.902C347.969 114.112 346.495 115.697 346.626 117.631L347.978 137.693C348.109 139.628 349.796 141.21 351.729 141.21Z" fill="#407BFF"/>
<path fill-rule="evenodd" clip-rule="evenodd" d="M354.146 177.038H357.196C359.129 177.038 360.602 175.455 360.472 173.521L359.118 153.459C358.988 151.523 357.3 149.94 355.368 149.94H352.319C350.386 149.94 348.912 151.523 349.043 153.459L350.395 173.521C350.526 175.455 352.213 177.038 354.146 177.038Z" fill="#407BFF"/>
<path d="M236.618 381.291H357.765C366.227 381.291 372.681 374.356 372.11 365.882L352.516 75.3649C351.944 66.8901 344.554 59.9557 336.092 59.9557H214.945C206.483 59.9557 200.029 66.8901 200.6 75.3649L220.194 365.882C220.766 374.356 228.156 381.291 236.618 381.291Z" fill="#0461FB"/>
<path fill-rule="evenodd" clip-rule="evenodd" d="M370.84 362.685L351.712 79.0862H201.906L221.034 362.685H370.84Z" fill="#F5F7F8"/>
<path fill-rule="evenodd" clip-rule="evenodd" d="M311.697 362.685L258.239 79.0862H224.681L278.14 362.685H311.697Z" fill="white"/>
<path fill-rule="evenodd" clip-rule="evenodd" d="M337.043 362.685L283.585 79.0862H266.587L320.045 362.685H337.043Z" fill="white"/>
<path fill-rule="evenodd" clip-rule="evenodd" d="M290.607 67.0793H261.394C260.35 67.0793 259.554 67.9338 259.625 68.9801C259.695 70.024 260.607 70.8796 261.649 70.8796H290.864C291.907 70.8796 292.702 70.024 292.632 68.9801C292.562 67.9338 291.651 67.0793 290.607 67.0793Z" fill="white"/>
<path fill-rule="evenodd" clip-rule="evenodd" d="M296.688 409.243L306.932 410.229L310.625 386.564L300.382 385.579L296.688 409.243Z" fill="#FFBD9C"/>
<path fill-rule="evenodd" clip-rule="evenodd" d="M308.097 405.214L297.38 401.872C296.979 401.748 296.582 401.931 296.425 402.314L292.923 410.846C292.561 411.729 293.094 412.843 294.024 413.115C297.9 414.251 301.584 414.553 306.262 416.563C311.73 418.911 314.024 422 319.901 422C324.12 422 325.066 418.132 323.287 417.592C315.189 415.129 316.226 413.107 310.325 406.752C309.683 406.062 308.945 405.479 308.097 405.214Z" fill="#112F61"/>
<path fill-rule="evenodd" clip-rule="evenodd" d="M310.622 386.571L308.721 398.768L298.473 397.783L300.374 385.584L310.622 386.571Z" fill="black"/>
<path fill-rule="evenodd" clip-rule="evenodd" d="M303.215 87.6324C316.646 86.0514 330.004 87.1162 343.411 89.7191C347.956 90.6026 351.49 94.3529 352.014 98.9774C353.467 111.833 355.125 140.651 348.65 183.638C348.649 183.642 293.772 179.011 293.772 179.011C293.659 171.208 299.201 135.673 294.621 98.7833C293.931 93.2287 297.741 88.2776 303.215 87.6324Z" fill="white"/>
<path fill-rule="evenodd" clip-rule="evenodd" d="M335.175 98.6524L333.207 102.592C333.01 102.987 332.617 103.244 332.177 103.266L330.055 103.376C329.675 103.395 329.3 103.282 328.995 103.054L325.334 100.325L329.856 97.0319L335.175 98.6524Z" fill="#263238"/>
<path fill-rule="evenodd" clip-rule="evenodd" d="M329.977 102.256C331.559 101.664 332.454 102.055 332.454 102.055C334.185 108.156 336.081 125.676 336.271 133.422C331.028 148.723 329.312 150.276 329.312 150.276L326.648 131.852C326.648 131.852 329.63 113.024 329.977 102.256Z" fill="#263238"/>
<path fill-rule="evenodd" clip-rule="evenodd" d="M314.833 61.126C316.085 68.7068 317.15 82.5605 311.728 87.4558C315.702 91.6363 320.915 96.4828 329.854 97.0303C338.791 97.5767 337.411 91.377 335.145 88.0662C326.803 85.8388 327.205 79.6054 328.843 73.7846L314.833 61.126Z" fill="#FFBD9C"/>
<path fill-rule="evenodd" clip-rule="evenodd" d="M309.443 86.7877C310.145 86.4715 310.904 86.2634 311.414 86.146C311.753 86.0646 312.103 86.203 312.276 86.5052C313.143 87.9747 315.769 94.5161 329.855 97.033C327.542 98.4001 324.458 102.662 323.128 104.699C318.903 102.505 307.912 95.9333 308.962 87.4376C309.007 87.1574 309.178 86.904 309.443 86.7877Z" fill="#F5F5F5"/>
<path fill-rule="evenodd" clip-rule="evenodd" d="M335.067 88.4123C334.951 87.8322 335.447 87.3265 336.019 87.4357C336.603 87.5462 337.181 87.7333 337.458 87.8263C337.571 87.8624 337.657 87.924 337.754 87.9984C338.832 88.9982 344.717 97.5008 339.211 104.386C337.985 102.519 334.046 98.2692 329.857 97.0323C333.818 95.2351 335.774 91.9056 335.067 88.4123Z" fill="#F5F5F5"/>
<path fill-rule="evenodd" clip-rule="evenodd" d="M320.545 66.2904L328.837 73.777C328.445 75.1546 328.129 76.5543 327.991 77.9191C324.795 77.3704 320.49 73.7294 320.25 70.3581C320.13 68.6759 320.249 67.0646 320.545 66.2904Z" fill="black"/>
<path fill-rule="evenodd" clip-rule="evenodd" d="M331.619 38.2174C338.765 41.0144 339.236 46.9014 338.53 53.3418C337.823 59.7809 330.897 55.5133 329.347 51.5003C327.796 47.4873 321.716 34.3404 331.619 38.2174Z" fill="#E94B7D"/>
<path fill-rule="evenodd" clip-rule="evenodd" d="M308.813 51.0393C310.798 61.1636 311.451 67.1797 317.241 71.8425C325.951 78.8548 337.763 72.7923 338.804 62.3482C339.74 52.9458 336.337 37.9679 325.931 35.0151C315.679 32.1077 306.828 40.9137 308.813 51.0393Z" fill="#FFBD9C"/>
<path fill-rule="evenodd" clip-rule="evenodd" d="M309.229 59.4265C317.74 59.8799 315.935 55.0357 314.388 52.2585C312.84 49.48 315.999 44.8951 313.937 42.5049C317.611 43.9697 321.471 42.7642 326.382 39.3417C330.192 36.6854 334.958 47.3224 339.601 41.9888C343.987 36.9516 339.912 29.3615 329.38 28.1362C318.849 26.9098 316.925 34.3871 310.003 33.7233C303.08 33.0571 305.489 38.7605 306.843 39.923C301.04 40.3101 297.879 45.8646 309.229 59.4265Z" fill="#E94B7D"/>
<path fill-rule="evenodd" clip-rule="evenodd" d="M308.132 40.6322C308.132 40.6322 303.779 38.5338 303.715 33.2048C301.458 37.2423 301.71 41.8214 308.132 40.6322Z" fill="#E94B7D"/>
<path fill-rule="evenodd" clip-rule="evenodd" d="M330.235 61.8561C327.096 62.3594 325.015 60.6784 324.92 60.5994C324.814 60.5133 324.798 60.3599 324.881 60.2564C324.966 60.153 325.119 60.139 325.225 60.2274C325.248 60.246 327.675 62.1932 331.133 61.1458C331.261 61.1062 331.399 61.1795 331.441 61.3085C331.483 61.4376 331.413 61.5736 331.285 61.6131C330.924 61.7224 330.573 61.8014 330.235 61.8561Z" fill="#263238"/>
<path fill-rule="evenodd" clip-rule="evenodd" d="M306.749 62.5053C308.45 64.7199 310.992 65.9638 313.243 66.2533C316.626 66.6869 317.745 63.5353 316.325 60.5918C315.047 57.9436 311.744 54.527 308.579 55.4489C305.46 56.3568 304.802 59.9722 306.749 62.5053Z" fill="#FFBD9C"/>
<path fill-rule="evenodd" clip-rule="evenodd" d="M310.106 282.67C309.702 252.315 305.831 180.029 305.831 180.029L348.615 183.638C348.615 183.638 340.105 258.144 334.967 289.11C329.63 321.307 313.249 396.712 313.249 396.712L295.881 395.229C295.881 395.229 302.2 306.139 310.106 282.67Z" fill="#112F61"/>
<path fill-rule="evenodd" clip-rule="evenodd" d="M314.302 397.191L293.655 395.441L294.466 388.764L315.976 390.207L314.302 397.191Z" fill="#407BFF"/>
<path fill-rule="evenodd" clip-rule="evenodd" d="M324.058 51.6443C324.169 52.4755 324.694 53.0986 325.23 53.0393C325.766 52.9789 326.111 52.257 326 51.4269C325.888 50.5981 325.364 49.9738 324.827 50.0331C324.291 50.0935 323.946 50.8143 324.058 51.6443Z" fill="#263238"/>
<path fill-rule="evenodd" clip-rule="evenodd" d="M333.53 50.8587C333.642 51.6887 334.166 52.313 334.703 52.2525C335.239 52.1921 335.584 51.4713 335.472 50.6413C335.361 49.8113 334.836 49.1881 334.3 49.2474C333.764 49.3067 333.419 50.0286 333.53 50.8587Z" fill="#263238"/>
<path fill-rule="evenodd" clip-rule="evenodd" d="M330.858 51.8804C330.858 51.8804 333.457 55.8887 335.856 57.736C334.627 59.0322 332.076 58.6753 332.076 58.6753L330.858 51.8804Z" fill="#ED893E"/>
<path fill-rule="evenodd" clip-rule="evenodd" d="M339.548 51.1118C339.718 52.4359 338.362 53.5426 336.537 53.7775C334.711 54.0123 332.992 52.9916 332.822 51.6687" fill="#407BFF"/>
<path fill-rule="evenodd" clip-rule="evenodd" d="M328.555 52.3447C328.805 53.656 327.516 54.8418 325.709 55.1871C323.902 55.5312 322.123 54.6151 321.875 53.3038" fill="#407BFF"/>
<path fill-rule="evenodd" clip-rule="evenodd" d="M324.99 55.5076C325.195 55.5076 325.404 55.4936 325.614 55.4681C326.555 55.346 327.408 54.9635 328.016 54.3904C328.649 53.794 328.946 53.0628 328.852 52.3316C328.929 52.27 329.585 52.0096 330.716 51.8631C331.852 51.7166 332.556 51.8015 332.675 51.9049C332.836 53.3162 334.598 54.2997 336.572 54.0556C337.513 53.9335 338.365 53.5511 338.974 52.9779C339.607 52.3827 339.904 51.6515 339.81 50.9203L339.256 50.99C339.326 51.5399 339.09 52.1002 338.591 52.5711C338.068 53.0628 337.325 53.3941 336.501 53.4988C334.838 53.7196 333.352 52.9396 333.201 51.7713C333.119 51.1261 331.767 51.1644 330.651 51.3074C329.532 51.4516 328.214 51.7573 328.298 52.4025C328.368 52.9524 328.132 53.5127 327.633 53.9824C327.109 54.4753 326.368 54.8054 325.543 54.9112C324.72 55.0193 323.916 54.8868 323.285 54.5427C322.684 54.2149 322.313 53.7324 322.244 53.1837L322.208 52.9059L307.877 54.7508L307.948 55.3065L321.743 53.5301C321.908 54.144 322.353 54.6706 323.018 55.0344C323.588 55.3448 324.272 55.5076 324.99 55.5076Z" fill="#263238"/>
<path fill-rule="evenodd" clip-rule="evenodd" d="M320.418 47.9979C320.337 47.9956 320.256 47.9735 320.18 47.9281C319.946 47.7898 319.864 47.4899 319.995 47.2562C321.314 44.9254 323.553 44.8091 323.647 44.8045C323.917 44.794 324.148 45.0044 324.164 45.2753C324.181 45.545 323.979 45.7728 323.714 45.7856C323.639 45.7891 321.896 45.8984 320.842 47.7584C320.753 47.9165 320.588 48.0025 320.418 47.9979Z" fill="#263238"/>
<path fill-rule="evenodd" clip-rule="evenodd" d="M336.591 46.6844C336.434 46.6983 336.272 46.6355 336.164 46.5018C334.78 44.8127 333.038 44.9475 332.965 44.9545C332.699 44.9778 332.458 44.779 332.426 44.5116C332.395 44.2419 332.583 44.0036 332.849 43.978C332.945 43.9699 335.174 43.7722 336.907 45.888C337.08 46.0996 337.054 46.4088 336.849 46.5774C336.772 46.6413 336.683 46.6751 336.591 46.6844Z" fill="#263238"/>
<path fill-rule="evenodd" clip-rule="evenodd" d="M274.467 277.776C283.348 232.071 285.336 196.32 293.771 179.011L335.215 183.637C335.215 183.637 310.523 251.753 298.472 280.821C285.946 311.048 261.219 362.685 261.219 362.685H240.517C240.517 362.685 259.842 298.595 274.467 277.776Z" fill="#112F61"/>
<path fill-rule="evenodd" clip-rule="evenodd" d="M405.842 104.735L410.293 101.898C411.801 100.935 413.797 101.167 415.006 102.444L418.045 105.654C419.43 107.117 419.292 109.41 417.741 110.735L415.567 112.592C413.683 114.202 411.481 115.396 409.106 116.098L402.548 118.034L398.247 113.409C396.972 108.533 405.842 104.735 405.842 104.735Z" fill="#FFBD9C"/>
<path fill-rule="evenodd" clip-rule="evenodd" d="M339.53 102.568C341.154 106.544 342.746 110.237 344.479 114.02C346.209 117.771 347.971 121.519 349.903 125.233C351.829 128.95 353.908 132.627 356.25 136.321C357.435 138.163 358.701 140.002 360.156 141.845C361.629 143.685 363.231 145.541 365.497 147.39C366.648 148.307 367.983 149.243 369.786 150.037C370.265 150.231 370.723 150.417 371.259 150.577L372.068 150.801C372.367 150.878 372.897 150.971 373.306 151.023C375.019 151.221 376.409 150.994 377.535 150.711C379.776 150.106 381.134 149.266 382.392 148.499C383.623 147.717 384.635 146.927 385.583 146.138C389.288 142.981 392.069 139.776 394.806 136.515C397.513 133.264 400.064 129.995 402.509 126.666C404.978 123.326 407.323 120.055 409.731 116.547L396.896 108.25C392.875 114.721 388.278 121.222 383.482 127.025C381.069 129.879 378.503 132.681 376.084 134.685C375.492 135.172 374.912 135.602 374.451 135.885C374.016 136.171 373.589 136.292 373.885 136.181C374.044 136.138 374.427 136.038 375.145 136.114C375.308 136.121 375.589 136.189 375.646 136.202C375.676 136.203 375.706 136.208 375.734 136.218C375.791 136.242 375.79 136.223 375.802 136.238C375.778 136.214 375.444 136.017 375.047 135.672C374.224 134.972 373.173 133.793 372.19 132.482C371.194 131.16 370.216 129.679 369.273 128.133C367.374 125.034 365.662 121.648 364.025 118.199C362.4 114.74 360.837 111.2 359.41 107.594C357.991 104.017 356.573 100.287 355.406 96.7578L339.53 102.568Z" fill="#407BFF"/>
<path fill-rule="evenodd" clip-rule="evenodd" d="M339.53 102.568C341.154 106.544 342.746 110.237 344.479 114.02C346.209 117.771 347.971 121.519 349.903 125.233C351.829 128.95 353.908 132.627 356.25 136.321C357.435 138.163 358.701 140.002 360.156 141.845C361.629 143.685 363.231 145.541 365.497 147.39C366.648 148.307 367.983 149.243 369.786 150.037C370.265 150.231 370.723 150.417 371.259 150.577L372.068 150.801C372.367 150.878 372.897 150.971 373.306 151.023C375.019 151.221 376.409 150.994 377.535 150.711C379.776 150.106 381.134 149.266 382.392 148.499C383.623 147.717 384.635 146.927 385.583 146.138C389.288 142.981 392.069 139.776 394.806 136.515C397.513 133.264 400.064 129.995 402.509 126.666C404.978 123.326 407.323 120.055 409.731 116.547L396.896 108.25C392.875 114.721 388.278 121.222 383.482 127.025C381.069 129.879 378.503 132.681 376.084 134.685C375.492 135.172 374.912 135.602 374.451 135.885C374.016 136.171 373.589 136.292 373.885 136.181C374.044 136.138 374.427 136.038 375.145 136.114C375.308 136.121 375.589 136.189 375.646 136.202C375.676 136.203 375.706 136.208 375.734 136.218C375.791 136.242 375.79 136.223 375.802 136.238C375.778 136.214 375.444 136.017 375.047 135.672C374.224 134.972 373.173 133.793 372.19 132.482C371.194 131.16 370.216 129.679 369.273 128.133C367.374 125.034 365.662 121.648 364.025 118.199C362.4 114.74 360.837 111.2 359.41 107.594C357.991 104.017 356.573 100.287 355.406 96.7578L339.53 102.568Z" fill="white"/>
<path fill-rule="evenodd" clip-rule="evenodd" d="M309.133 84.7238C313.486 92.8091 328.984 123.866 330.858 143C337.722 125.607 336.221 86.9895 336.221 86.9895C339.594 87.079 345.78 88.5787 350.469 90.4201C353.503 91.6129 355.586 94.5075 355.831 97.751C356.544 107.182 357.53 129.638 353.948 157.59C349.136 195.139 344.627 253.524 344.627 253.524C344.627 253.524 306.266 251.924 276.671 245.671C280.284 216.973 292.634 168.867 292.746 155.981C292.889 139.404 292.504 106.991 291.98 93.4636C291.824 89.4576 294.522 86.0374 298.388 85.2434C303.698 84.153 309.133 84.7238 309.133 84.7238Z" fill="#407BFF"/>
<path fill-rule="evenodd" clip-rule="evenodd" d="M309.133 84.7237C313.486 92.809 328.984 123.866 330.858 143C337.722 125.607 336.221 86.9895 336.221 86.9895C339.594 87.079 345.78 88.5786 350.469 90.4201C353.503 91.6128 355.586 94.5075 355.831 97.7509C356.544 107.182 357.53 129.638 353.948 157.59C349.136 195.139 344.627 253.524 344.627 253.524C344.627 253.524 306.266 251.924 276.671 245.671C280.284 216.973 292.634 168.867 292.746 155.981C292.889 139.4 292.504 106.977 291.98 93.4542C291.83 89.5912 294.307 86.1397 298.024 85.3213C303.448 84.1262 309.133 84.7237 309.133 84.7237Z" fill="white"/>
<path fill-rule="evenodd" clip-rule="evenodd" d="M318.177 247.297C324.837 210.485 330.124 156.464 330.555 149.96L329.953 149.92C329.522 156.418 324.239 210.401 317.582 247.19L318.177 247.297Z" fill="white"/>
<path fill-rule="evenodd" clip-rule="evenodd" d="M321.501 181.807H356.872C358.259 181.807 359.639 180.668 359.939 179.278L371.774 124.211C372.072 122.82 371.18 121.683 369.792 121.683H334.423C333.034 121.683 331.654 122.82 331.356 124.211L319.521 179.278C319.222 180.668 320.113 181.807 321.501 181.807Z" fill="white"/>
<path d="M322.599 182.311H358.563C359.974 182.311 361.378 181.154 361.68 179.74L373.714 123.749C374.018 122.335 373.111 121.178 371.7 121.178H335.736C334.325 121.178 332.921 122.335 332.618 123.749L320.585 179.74C320.281 181.154 321.188 182.311 322.599 182.311Z" fill="#0461FB"/>
<path fill-rule="evenodd" clip-rule="evenodd" d="M318.475 150.672L327.426 150.337C328.503 150.296 329.577 150.483 330.578 150.887L335.198 152.745C337.09 153.506 337.948 155.636 337.101 157.464L335.242 161.475C334.502 163.072 332.685 163.929 330.949 163.498L325.827 162.227C325.827 162.227 316.211 161.459 315.868 156.431L318.475 150.672Z" fill="#FFBD9C"/>
<path fill-rule="evenodd" clip-rule="evenodd" d="M293.767 89.7031C291.545 93.1395 289.523 96.3795 287.517 99.7938C285.519 103.176 283.559 106.598 281.711 110.134C279.875 113.684 278.11 117.313 276.523 121.22C275.742 123.193 275.012 125.237 274.405 127.49C273.828 129.767 273.265 132.178 273.383 135.477L273.395 135.782L273.402 135.933C273.403 135.97 273.407 136.038 273.422 136.162C273.467 136.582 273.531 137.004 273.613 137.416C273.701 137.786 273.803 138.156 273.917 138.517C274.032 138.878 274.155 139.16 274.289 139.48C274.812 140.667 275.424 141.593 275.981 142.295C277.132 143.764 278.188 144.658 279.202 145.509C281.225 147.137 283.112 148.286 284.987 149.354C288.722 151.448 292.379 153.081 296.044 154.63C299.695 156.189 303.345 157.606 307.012 158.946C310.691 160.313 314.289 161.57 318.104 162.851L322.522 148.206C319.087 147.249 315.493 146.082 312.028 144.898C308.552 143.675 305.112 142.385 301.768 141.003C298.447 139.595 295.187 138.07 292.315 136.427C290.896 135.614 289.556 134.739 288.633 133.972C288.189 133.613 287.828 133.223 287.828 133.177C287.792 133.137 287.914 133.241 288.053 133.561C288.101 133.66 288.118 133.729 288.166 133.86C288.217 133.996 288.256 134.136 288.28 134.276C288.326 134.454 288.358 134.64 288.369 134.825C288.372 134.891 288.373 134.901 288.374 134.876L288.379 134.852L288.384 134.8C288.378 134.293 288.588 132.935 289.014 131.56C289.431 130.154 290.011 128.627 290.67 127.083C292.005 123.978 293.668 120.818 295.473 117.702C297.285 114.582 299.205 111.472 301.239 108.421C303.268 105.401 305.419 102.292 307.548 99.5043L293.767 89.7031Z" fill="#407BFF"/>
<path fill-rule="evenodd" clip-rule="evenodd" d="M293.767 89.7031C291.545 93.1395 289.523 96.3795 287.517 99.7938C285.519 103.176 283.559 106.598 281.711 110.134C279.875 113.684 278.11 117.313 276.523 121.22C275.742 123.193 275.012 125.237 274.405 127.49C273.828 129.767 273.265 132.178 273.383 135.477L273.395 135.782L273.402 135.933C273.403 135.97 273.407 136.038 273.422 136.162C273.467 136.582 273.531 137.004 273.613 137.416C273.701 137.786 273.803 138.156 273.917 138.517C274.032 138.878 274.155 139.16 274.289 139.48C274.812 140.667 275.424 141.593 275.981 142.295C277.132 143.764 278.188 144.658 279.202 145.509C281.225 147.137 283.112 148.286 284.987 149.354C288.722 151.448 292.379 153.081 296.044 154.63C299.695 156.189 303.345 157.606 307.012 158.946C310.691 160.313 314.289 161.57 318.104 162.851L322.522 148.206C319.087 147.249 315.493 146.082 312.028 144.898C308.552 143.675 305.112 142.385 301.768 141.003C298.447 139.595 295.187 138.07 292.315 136.427C290.896 135.614 289.556 134.739 288.633 133.972C288.189 133.613 287.828 133.223 287.828 133.177C287.792 133.137 287.914 133.241 288.053 133.561C288.101 133.66 288.118 133.729 288.166 133.86C288.217 133.996 288.256 134.136 288.28 134.276C288.326 134.454 288.358 134.64 288.369 134.825C288.372 134.891 288.373 134.901 288.374 134.876L288.379 134.852L288.384 134.8C288.378 134.293 288.588 132.935 289.014 131.56C289.431 130.154 290.011 128.627 290.67 127.083C292.005 123.978 293.668 120.818 295.473 117.702C297.285 114.582 299.205 111.472 301.239 108.421C303.268 105.401 305.419 102.292 307.548 99.5043L293.767 89.7031Z" fill="white"/>
<path fill-rule="evenodd" clip-rule="evenodd" d="M305.512 130.04C305.664 130.04 305.814 129.966 305.901 129.826C306.038 129.613 305.974 129.327 305.759 129.191L303.946 128.035C300.472 125.824 298.741 121.781 299.539 117.736L303.181 99.2464C303.885 95.6764 306.783 94.2999 309.05 94.2046C311.325 94.1104 314.321 95.2392 315.319 98.7373L320.489 116.86C321.619 120.823 320.233 124.996 316.954 127.491L315.243 128.793C315.041 128.948 315.002 129.237 315.156 129.439C315.309 129.643 315.597 129.681 315.802 129.529L317.513 128.226C321.095 125.5 322.61 120.939 321.374 116.605L316.204 98.4827C315.262 95.1811 312.427 93.1618 309.011 93.2827C305.585 93.4269 302.942 95.6973 302.278 99.0663L298.635 117.557C297.764 121.977 299.655 126.396 303.452 128.814L305.266 129.968C305.342 130.017 305.427 130.04 305.512 130.04Z" fill="#263238"/>
<path fill-rule="evenodd" clip-rule="evenodd" d="M302.729 99.6174H302.749L315.781 99.071C316.034 99.0606 316.233 98.8455 316.222 98.5909C316.211 98.3363 315.989 98.1701 315.742 98.1492L302.71 98.6956C302.456 98.706 302.259 98.9211 302.269 99.1757C302.28 99.4233 302.484 99.6174 302.729 99.6174Z" fill="#263238"/>
<path fill-rule="evenodd" clip-rule="evenodd" d="M309.064 94.2033C309.313 94.2033 309.519 94.0045 309.523 93.7534C309.578 91.4807 310.25 87.3967 312.423 86.5039C312.658 86.4074 312.771 86.1377 312.675 85.9017C312.578 85.6658 312.309 85.5542 312.073 85.6506C308.856 86.9713 308.62 93.0431 308.604 93.7313C308.597 93.9859 308.798 94.1975 309.053 94.2033H309.064Z" fill="#263238"/>
<path fill-rule="evenodd" clip-rule="evenodd" d="M348.936 110.002C348.966 110.002 348.996 109.999 349.027 109.992C349.276 109.943 349.438 109.7 349.388 109.45C347.86 101.812 341.52 89.7472 335.939 86.2213C335.722 86.0876 335.439 86.1504 335.303 86.3655C335.167 86.5817 335.232 86.8665 335.447 87.0025C340.843 90.411 346.993 102.17 348.484 109.632C348.528 109.851 348.721 110.002 348.936 110.002Z" fill="#263238"/>
<path fill-rule="evenodd" clip-rule="evenodd" d="M345.124 111.204C345.849 113.055 347.423 114.165 348.642 113.687C349.859 113.208 350.259 111.32 349.534 109.471C348.809 107.621 347.235 106.51 346.016 106.989C344.799 107.468 344.398 109.354 345.124 111.204Z" fill="white"/>
<path fill-rule="evenodd" clip-rule="evenodd" d="M314.487 129.204C314.523 130.072 315.016 130.758 315.588 130.734C316.16 130.709 316.594 129.986 316.558 129.118C316.521 128.249 316.029 127.565 315.457 127.588C314.885 127.612 314.451 128.335 314.487 129.204Z" fill="white"/>
<path fill-rule="evenodd" clip-rule="evenodd" d="M304.477 129.623C304.513 130.491 305.006 131.177 305.578 131.151C306.149 131.128 306.585 130.405 306.548 129.537C306.512 128.668 306.018 127.983 305.447 128.007C304.875 128.031 304.441 128.754 304.477 129.623Z" fill="white"/>
<path fill-rule="evenodd" clip-rule="evenodd" d="M185.889 124.695H131V122H185.889V124.695Z" fill="white"/>
<g filter="url(#filter0_d_0_2011)">
<path d="M208 183H188.919V180.244H208V183Z" fill="white"/>
</g>
<path fill-rule="evenodd" clip-rule="evenodd" d="M222.114 277.471C222.114 277.596 229.324 277.698 238.214 277.698C247.108 277.698 254.316 277.596 254.316 277.471C254.316 277.346 247.108 277.244 238.214 277.244C229.324 277.244 222.114 277.346 222.114 277.471Z" fill="#112F61"/>
<path fill-rule="evenodd" clip-rule="evenodd" d="M251.145 277.795C251.145 279.361 252.419 280.629 253.99 280.629C255.561 280.629 256.835 279.361 256.835 277.795C256.835 276.23 255.561 274.961 253.99 274.961C252.419 274.961 251.145 276.23 251.145 277.795Z" fill="#112F61"/>
<path fill-rule="evenodd" clip-rule="evenodd" d="M115.006 278.468C115.006 307.929 138.983 331.812 168.56 331.812C198.136 331.812 222.114 307.929 222.114 278.468C222.114 249.008 198.136 225.126 168.56 225.126C138.983 225.126 115.006 249.008 115.006 278.468Z" fill="#F5F5F5"/>
<path fill-rule="evenodd" clip-rule="evenodd" d="M211.693 246.859C215.802 252.412 218.851 258.786 220.557 265.689H116.564C118.268 258.786 121.318 252.412 125.427 246.859H211.693Z" fill="#D6E7F3"/>
<path fill-rule="evenodd" clip-rule="evenodd" d="M115.006 278.468C115.006 274.073 115.551 269.804 116.557 265.717C123.875 265.75 140.403 265.754 158.802 265.746C162.639 265.744 165.507 269.355 164.507 273.044C164.499 273.071 164.493 273.098 164.485 273.125C163.571 276.435 159.8 279.951 158.793 283.231C157.622 287.038 157.339 290.233 158.686 293.975C160.033 297.718 163.035 300.901 166.768 301.885C171.974 303.257 177.917 299.661 179.328 294.285C180.225 290.876 179.735 287.14 178.39 283.886C177.043 280.63 173.4 277.557 173.053 274.042C173.05 274.013 173.047 273.984 173.045 273.955C172.634 269.523 176.245 265.735 180.713 265.731C196.002 265.718 210.614 265.702 220.556 265.689C221.567 269.785 222.114 274.062 222.114 278.468C222.114 307.929 198.136 331.811 168.56 331.811C138.983 331.811 115.006 307.929 115.006 278.468Z" fill="#F3AF44"/>
<path fill-rule="evenodd" clip-rule="evenodd" d="M196.411 300.562C199.409 300.043 202.429 301.134 205.246 302.28C208.062 303.427 210.982 304.671 214.017 304.47C214.375 304.447 214.737 304.393 215.095 304.315C205.957 320.71 188.406 331.811 168.246 331.811C148.535 331.811 131.323 321.197 122.025 305.4C123.233 305.363 124.424 305.181 125.571 304.776C130.411 303.065 133.977 297.649 139.1 298.018C143.665 298.347 146.678 303.222 151.134 304.269C155.391 305.268 159.371 302.58 163.419 300.512C164.355 301.125 165.372 301.6 166.454 301.884C169.504 302.688 172.801 301.778 175.297 299.813C178.54 301.635 181.403 304.561 185.089 304.627C189.135 304.698 192.425 301.253 196.411 300.562Z" fill="#FECA7B"/>
<path d="M115.024 277.282C124.08 277.378 142.607 277.582 161.946 277.795C160.679 279.63 159.335 281.465 158.792 283.232C158.417 284.449 158.147 285.601 157.978 286.731C157.62 289.135 157.77 291.43 158.687 293.976C159.644 296.634 161.438 299.006 163.733 300.512C159.685 302.58 155.705 305.268 151.448 304.268C146.992 303.222 143.979 298.347 139.414 298.018C134.291 297.649 130.726 303.065 125.885 304.775C124.738 305.181 123.546 305.363 122.339 305.401C120.434 302.164 118.862 298.713 117.67 295.087C115.95 289.855 115.005 284.273 115.005 278.468C115.005 278.071 115.015 277.676 115.024 277.282Z" fill="url(#paint7_linear_0_2011)"/>
<path d="M179.328 294.285C179.827 292.388 179.884 290.391 179.615 288.431C179.402 286.868 178.986 285.33 178.39 283.886C177.561 281.882 175.863 279.946 174.598 277.935C195.158 278.162 214.495 278.376 222.114 278.46V278.468C222.114 285.705 220.66 292.603 218.039 298.895C217.264 300.758 216.383 302.565 215.408 304.315C215.051 304.393 214.69 304.446 214.331 304.47C211.295 304.671 208.376 303.426 205.56 302.28C202.744 301.134 199.723 300.043 196.725 300.562C192.738 301.253 189.449 304.697 185.403 304.626C181.716 304.562 178.853 301.636 175.61 299.813C177.376 298.424 178.744 296.511 179.328 294.285Z" fill="url(#paint8_linear_0_2011)"/>
<path fill-rule="evenodd" clip-rule="evenodd" d="M185.811 282.372C186.366 281.078 187.77 280.065 189.155 280.343L190.539 280.479C192.118 280.736 193.439 281.99 193.968 283.493C194.498 284.997 194.296 286.698 193.624 288.144C192.951 289.591 191.839 290.8 190.582 291.786C190.22 292.069 189.817 292.346 189.357 292.372C188.534 292.417 187.91 291.663 187.491 290.956C186.675 289.579 186.07 288.077 185.705 286.52C185.383 285.15 185.255 283.666 185.811 282.372Z" fill="white"/>
<path fill-rule="evenodd" clip-rule="evenodd" d="M199.032 289.446C200.122 289.107 201.295 289.176 202.338 289.64C203.623 290.208 205.203 291.132 205.452 292.307C205.879 294.333 205.024 297.104 204.06 297.851C203.096 298.597 198.387 297.318 196.995 296.571C195.603 295.825 195.069 292.094 195.817 291.027C196.252 290.409 197.806 289.825 199.032 289.446Z" fill="white"/>
<path fill-rule="evenodd" clip-rule="evenodd" d="M204.28 282.733C204.337 282.208 204.555 281.714 204.88 281.3C205.703 280.251 207.218 280.034 208.388 280.678L208.392 280.68C209.615 281.031 210.206 283.057 209.781 284.252C209.354 285.448 207.965 286.176 206.71 285.956C205.247 285.699 204.119 284.203 204.28 282.733Z" fill="white"/>
<path fill-rule="evenodd" clip-rule="evenodd" d="M181.808 297.655C181.865 297.13 182.084 296.636 182.408 296.222C183.232 295.173 184.746 294.956 185.916 295.6L185.92 295.602C187.144 295.953 187.735 297.979 187.309 299.175C186.882 300.37 185.493 301.098 184.238 300.877C182.775 300.621 181.647 299.125 181.808 297.655Z" fill="white"/>
<path fill-rule="evenodd" clip-rule="evenodd" d="M210.415 295.2C210.489 293.892 210.63 292.587 210.839 291.294C211.015 290.199 211.281 289.037 212.097 288.283C212.738 287.689 213.648 287.439 214.525 287.467C215.401 287.495 216.25 287.778 217.048 288.136L217.826 289.328C218.109 290.842 217.789 292.401 217.371 293.884C217.078 294.92 216.728 295.956 216.12 296.845C215.511 297.732 214.61 298.466 213.549 298.666C212.488 298.867 211.28 298.439 210.75 297.503C210.361 296.818 210.37 295.986 210.415 295.2Z" fill="white"/>
<path fill-rule="evenodd" clip-rule="evenodd" d="M141.042 283.332C141.73 281.841 143.837 280.673 145.479 280.555C146.923 280.452 149.89 280.462 151.74 280.818C152.176 280.901 152.551 281.179 152.781 281.559C152.896 281.754 152.966 281.971 152.993 282.194C153.2 283.89 153.711 285.581 152.793 287.015C151.989 288.269 150.573 289.032 149.117 289.362C147.661 289.692 146.148 289.637 144.656 289.573C143.649 289.53 142.555 289.448 141.804 288.779C141.077 288.13 140.861 287.094 140.761 286.127C140.663 285.185 140.645 284.193 141.042 283.332Z" fill="white"/>
<path fill-rule="evenodd" clip-rule="evenodd" d="M150.582 292.932L151.705 292.954C152.889 293.479 153.579 294.921 153.233 296.164C152.886 297.406 151.533 298.287 150.252 298.09C148.971 297.895 147.943 296.639 148.022 295.351C148.1 294.064 149.287 292.937 150.582 292.932Z" fill="white"/>
<path fill-rule="evenodd" clip-rule="evenodd" d="M121.611 280.437L122.734 280.457C123.918 280.983 124.609 282.424 124.262 283.668C123.914 284.91 122.561 285.791 121.28 285.594C120.001 285.399 118.973 284.143 119.05 282.855C119.129 281.567 120.316 280.44 121.611 280.437Z" fill="white"/>
<path fill-rule="evenodd" clip-rule="evenodd" d="M128.215 286.139C128.466 284.857 129.803 284.004 131.11 283.915C132.418 283.827 133.689 284.34 134.857 284.932L135.766 285.551C136.533 286.678 137.307 287.817 137.791 289.088C138.275 290.361 138.448 291.799 137.993 293.082C137.537 294.364 136.363 295.438 134.998 295.521C134.06 295.576 133.142 295.175 132.387 294.617C130.437 293.176 129.451 290.808 128.619 288.537C128.336 287.765 128.056 286.945 128.215 286.139Z" fill="white"/>
<path fill-rule="evenodd" clip-rule="evenodd" d="M121.471 290.746L122.54 290.735C123.402 290.993 124.202 291.496 124.74 292.215C125.277 292.934 125.534 293.876 125.35 294.754C125.168 295.632 124.522 296.418 123.667 296.698C122.811 296.977 121.78 296.693 121.248 295.969C120.897 295.491 120.779 294.885 120.713 294.296C120.575 293.059 120.664 291.696 121.471 290.746Z" fill="white"/>
<path fill-rule="evenodd" clip-rule="evenodd" d="M115.006 278.468C115.006 278.468 115.028 278.176 115.051 277.604C115.088 277.033 115.068 276.18 115.17 275.07C115.311 272.845 115.686 269.562 116.709 265.451C117.767 261.361 119.538 256.431 122.641 251.267C125.738 246.124 130.177 240.743 136.225 236.155C139.236 233.855 142.659 231.792 146.429 230.088C150.198 228.386 154.316 227.019 158.708 226.233C163.09 225.428 167.731 225.113 172.468 225.482C174.84 225.623 177.225 226.007 179.619 226.48C182.007 226.989 184.39 227.672 186.752 228.508C196.163 231.904 205.107 238.246 211.549 247.039C218.024 255.772 221.909 266.918 221.887 278.46C221.914 290.008 218.029 301.157 211.552 309.893C205.109 318.689 196.165 325.032 186.752 328.429C184.39 329.265 182.006 329.947 179.618 330.457C177.224 330.929 174.839 331.314 172.466 331.455C167.728 331.825 163.088 331.508 158.704 330.703C154.313 329.918 150.195 328.55 146.426 326.848C142.655 325.143 139.233 323.079 136.222 320.779C130.175 316.191 125.736 310.81 122.639 305.667C119.537 300.504 117.766 295.574 116.709 291.484C115.686 287.374 115.31 284.091 115.17 281.867C115.068 280.756 115.088 279.904 115.051 279.333C115.028 278.762 115.006 278.468 115.006 278.468C115.006 278.468 114.971 279.642 115.08 281.873C115.19 284.102 115.537 287.397 116.537 291.526C117.571 295.636 119.325 300.596 122.421 305.797C125.512 310.976 129.956 316.402 136.027 321.034C139.05 323.355 142.488 325.441 146.28 327.165C150.07 328.887 154.215 330.272 158.635 331.073C163.048 331.89 167.721 332.216 172.495 331.852C174.886 331.713 177.289 331.33 179.702 330.856C182.111 330.346 184.513 329.661 186.895 328.821C196.387 325.408 205.409 319.021 211.911 310.156C218.446 301.352 222.368 290.104 222.341 278.46C222.363 266.82 218.442 255.578 211.907 246.776C205.406 237.913 196.385 231.528 186.895 228.117C184.513 227.277 182.112 226.592 179.703 226.081C177.29 225.608 174.887 225.224 172.497 225.085C167.724 224.72 163.051 225.046 158.639 225.864C154.218 226.664 150.074 228.049 146.284 229.771C142.492 231.494 139.053 233.579 136.031 235.901C129.959 240.532 125.514 245.958 122.423 251.137C119.326 256.338 117.572 261.298 116.538 265.408C115.537 269.539 115.19 272.834 115.08 275.064C114.971 277.294 115.006 278.468 115.006 278.468Z" fill="#112F61"/>
<path fill-rule="evenodd" clip-rule="evenodd" d="M176.923 264.893C175.162 265.423 173.747 266.781 172.779 268.339C171.812 269.897 171.236 271.658 170.667 273.4C170.472 274.002 170.265 274.62 169.852 275.098C169.437 275.577 168.756 275.886 168.156 275.678C167.251 275.366 167.066 274.205 166.929 273.261C166.339 269.195 163.782 265.458 160.198 263.425L176.923 264.893Z" fill="#D6E7F3"/>
<path fill-rule="evenodd" clip-rule="evenodd" d="M165.706 297.908C167.457 294.396 173.695 292.52 177.633 292.55C178.511 294.754 176.584 297.881 174.372 299.345C172.161 300.809 169.254 301.068 166.728 300.252C166.211 300.085 165.656 299.825 165.468 299.318C165.297 298.858 165.488 298.348 165.706 297.908Z" fill="#0461FB"/>
<path fill-rule="evenodd" clip-rule="evenodd" d="M162.975 279.549C163.204 279.624 163.405 279.772 163.532 279.976C164.552 281.634 164.893 283.698 164.446 285.593C163.973 287.609 162.615 289.401 160.799 290.409C160.556 290.544 159.996 290.706 159.749 290.576C159.22 290.297 159.09 289.425 159.066 289.01C158.958 287.193 158.887 283.876 161.57 279.968C161.827 279.594 162.542 279.407 162.975 279.549Z" fill="#0461FB"/>
<path fill-rule="evenodd" clip-rule="evenodd" d="M173.199 281.659C173.33 281.443 173.539 281.217 173.791 281.256C173.92 281.277 174.538 281.478 174.635 281.566C176.527 283.246 177.539 285.189 177.619 288.049C177.644 288.956 176.824 289.672 175.934 289.484C175.472 289.387 175.046 289.228 174.792 289.009C174.215 288.512 173.82 287.84 173.489 287.156C173.071 286.294 172.738 285.378 172.641 284.427C172.544 283.474 172.698 282.476 173.199 281.659Z" fill="#0461FB"/>
<path fill-rule="evenodd" clip-rule="evenodd" d="M166.386 278.774C166.907 278.16 168.311 277.412 169.396 277.528C170.014 277.526 170.59 277.911 170.935 278.424C171.278 278.936 171.418 279.559 171.464 280.173C171.536 281.141 171.38 282.151 170.848 282.963C170.317 283.775 169.366 284.349 168.397 284.269C167.667 284.209 166.996 283.79 166.54 283.22C166.083 282.651 165.828 281.94 165.709 281.221C165.537 280.182 165.702 279.579 166.386 278.774Z" fill="#D6E7F3"/>
<path fill-rule="evenodd" clip-rule="evenodd" d="M171.717 288.286C171.984 288.79 172.104 289.907 171.739 290.587C171.577 290.993 171.169 291.268 170.741 291.357C170.312 291.446 169.863 291.372 169.446 291.239C168.789 291.03 168.163 290.659 167.768 290.096C167.374 289.533 167.246 288.759 167.557 288.145C167.789 287.684 168.245 287.355 168.741 287.207C169.238 287.059 169.774 287.08 170.281 287.193C171.012 287.357 171.367 287.625 171.717 288.286Z" fill="#D6E7F3"/>
<path fill-rule="evenodd" clip-rule="evenodd" d="M163.539 290.135C163.357 290.169 163.173 290.211 163.004 290.286C162.469 290.522 161.815 290.903 161.465 291.396C161.038 291.997 160.857 292.555 160.877 293.253C160.898 294.036 161.42 294.713 161.971 295.273C162.706 296.02 163.685 296.724 164.79 296.202C165.229 295.994 165.569 295.622 165.807 295.199C166.154 294.576 166.536 293.863 166.619 293.155C166.699 292.466 166.637 291.814 166.235 291.093C165.899 290.485 165.144 290.006 164.448 290.045L163.539 290.135Z" fill="#D6E7F3"/>
<path fill-rule="evenodd" clip-rule="evenodd" d="M162.234 292.248C162.234 292.248 162.083 292.446 162.056 292.559C161.956 292.988 162.167 293.468 162.506 293.75C162.691 293.903 162.947 294 163.177 293.927C163.479 293.829 163.582 293.47 163.586 293.155C163.593 292.645 163.212 292.292 163.212 292.292C163.212 292.292 162.973 292.043 162.747 292.043C162.358 292.043 162.234 292.248 162.234 292.248Z" fill="white"/>
<path fill-rule="evenodd" clip-rule="evenodd" d="M168.026 288.664C168.026 288.664 167.875 288.862 167.849 288.974C167.748 289.403 167.96 289.883 168.298 290.165C168.484 290.318 168.739 290.416 168.969 290.341C169.271 290.244 169.374 289.885 169.379 289.57C169.385 289.061 169.005 288.707 169.005 288.707C169.005 288.707 168.765 288.459 168.539 288.459C168.151 288.459 168.026 288.664 168.026 288.664Z" fill="white"/>
<path fill-rule="evenodd" clip-rule="evenodd" d="M166.496 280.191C166.496 280.191 166.345 280.389 166.319 280.501C166.217 280.93 166.429 281.411 166.768 281.693C166.953 281.846 167.209 281.944 167.439 281.87C167.74 281.772 167.844 281.413 167.849 281.098C167.855 280.588 167.474 280.235 167.474 280.235C167.474 280.235 167.235 279.986 167.009 279.986C166.621 279.986 166.496 280.191 166.496 280.191Z" fill="white"/>
<path fill-rule="evenodd" clip-rule="evenodd" d="M184.261 257.213C184.261 259.548 186.161 261.44 188.503 261.44C190.847 261.44 192.746 259.548 192.746 257.213C192.746 254.879 190.847 252.987 188.503 252.987C186.161 252.987 184.261 254.879 184.261 257.213Z" fill="white"/>
<path fill-rule="evenodd" clip-rule="evenodd" d="M121.819 257.391C121.819 259.725 123.718 261.617 126.061 261.617C128.405 261.617 130.304 259.725 130.304 257.391C130.304 255.057 128.405 253.164 126.061 253.164C123.718 253.164 121.819 255.057 121.819 257.391Z" fill="white"/>
<path fill-rule="evenodd" clip-rule="evenodd" d="M153.725 254.495C153.725 256.829 155.624 258.721 157.968 258.721C160.311 258.721 162.21 256.829 162.21 254.495C162.21 252.161 160.311 250.269 157.968 250.269C155.624 250.269 153.725 252.161 153.725 254.495Z" fill="white"/>
<path fill-rule="evenodd" clip-rule="evenodd" d="M206.607 255.447C205.434 257.468 205.861 259.897 207.557 260.873C209.254 261.849 211.579 261.001 212.75 258.98C213.922 256.959 213.497 254.529 211.8 253.553C210.104 252.578 207.779 253.425 206.607 255.447Z" fill="white"/>
<path fill-rule="evenodd" clip-rule="evenodd" d="M146.493 259.474C148.279 260.984 150.755 261.003 152.022 259.516C153.291 258.028 152.87 255.598 151.084 254.087C149.298 252.577 146.821 252.558 145.554 254.045C144.286 255.533 144.706 257.963 146.493 259.474Z" fill="white"/>
<path fill-rule="evenodd" clip-rule="evenodd" d="M198.616 254.336C198.616 255.89 199.881 257.149 201.441 257.149C203.001 257.149 204.265 255.89 204.265 254.336C204.265 252.782 203.001 251.523 201.441 251.523C199.881 251.523 198.616 252.782 198.616 254.336Z" fill="white"/>
<path fill-rule="evenodd" clip-rule="evenodd" d="M208.01 254.775C207.515 255.268 207.409 255.965 207.774 256.329C208.14 256.693 208.839 256.588 209.335 256.095C209.831 255.601 209.936 254.904 209.57 254.54C209.204 254.176 208.505 254.281 208.01 254.775Z" fill="white"/>
<path fill-rule="evenodd" clip-rule="evenodd" d="M199.152 254.249C199.198 254.946 199.594 255.488 200.039 255.46C200.483 255.431 200.806 254.843 200.762 254.146C200.716 253.449 200.32 252.907 199.875 252.935C199.43 252.964 199.106 253.553 199.152 254.249Z" fill="white"/>
<path fill-rule="evenodd" clip-rule="evenodd" d="M184.818 256.995C184.872 257.817 185.353 258.455 185.894 258.42C186.435 258.386 186.831 257.691 186.777 256.869C186.724 256.046 186.242 255.408 185.702 255.443C185.16 255.478 184.764 256.172 184.818 256.995Z" fill="white"/>
<path fill-rule="evenodd" clip-rule="evenodd" d="M178.773 251.523C178.773 252.69 179.723 253.636 180.895 253.636C182.065 253.636 183.016 252.69 183.016 251.523C183.016 250.356 182.065 249.409 180.895 249.409C179.723 249.409 178.773 250.356 178.773 251.523Z" fill="white"/>
<path fill-rule="evenodd" clip-rule="evenodd" d="M179.137 251.574C179.181 252.237 179.569 252.752 180.005 252.724C180.442 252.696 180.761 252.135 180.718 251.472C180.676 250.809 180.286 250.293 179.849 250.322C179.413 250.349 179.094 250.91 179.137 251.574Z" fill="white"/>
<path fill-rule="evenodd" clip-rule="evenodd" d="M167.838 263.936C167.252 264.947 167.6 266.239 168.615 266.823C169.629 267.406 170.926 267.06 171.512 266.05C172.098 265.039 171.75 263.746 170.736 263.163C169.721 262.58 168.424 262.925 167.838 263.936Z" fill="white"/>
<path fill-rule="evenodd" clip-rule="evenodd" d="M168.128 264.162C167.832 264.758 167.91 265.397 168.302 265.59C168.695 265.784 169.253 265.457 169.548 264.861C169.844 264.265 169.766 263.625 169.374 263.432C168.982 263.24 168.424 263.565 168.128 264.162Z" fill="white"/>
<path fill-rule="evenodd" clip-rule="evenodd" d="M133.978 259.343C133.392 260.354 133.74 261.646 134.754 262.229C135.769 262.813 137.066 262.467 137.652 261.457C138.238 260.446 137.889 259.153 136.875 258.569C135.861 257.987 134.563 258.332 133.978 259.343Z" fill="white"/>
<path fill-rule="evenodd" clip-rule="evenodd" d="M134.266 259.569C133.971 260.164 134.049 260.804 134.441 260.997C134.833 261.191 135.391 260.864 135.686 260.268C135.983 259.672 135.904 259.032 135.512 258.839C135.12 258.647 134.563 258.972 134.266 259.569Z" fill="white"/>
<path fill-rule="evenodd" clip-rule="evenodd" d="M136.416 250.453C135.508 252.018 136.047 254.02 137.619 254.923C139.191 255.827 141.2 255.291 142.107 253.726C143.015 252.16 142.476 250.158 140.904 249.255C139.333 248.351 137.324 248.887 136.416 250.453Z" fill="white"/>
<path fill-rule="evenodd" clip-rule="evenodd" d="M136.866 250.802C136.408 251.725 136.528 252.716 137.136 253.015C137.743 253.314 138.607 252.808 139.064 251.885C139.524 250.962 139.402 249.971 138.795 249.673C138.187 249.373 137.323 249.879 136.866 250.802Z" fill="white"/>
<path fill-rule="evenodd" clip-rule="evenodd" d="M169.26 256.694C169.26 258.248 170.524 259.507 172.084 259.507C173.644 259.507 174.908 258.248 174.908 256.694C174.908 255.14 173.644 253.88 172.084 253.88C170.524 253.88 169.26 255.14 169.26 256.694Z" fill="white"/>
<path fill-rule="evenodd" clip-rule="evenodd" d="M170.167 256.544C170.209 257.207 170.598 257.722 171.035 257.694C171.472 257.666 171.79 257.106 171.747 256.442C171.704 255.779 171.316 255.264 170.879 255.292C170.442 255.32 170.123 255.88 170.167 256.544Z" fill="white"/>
<path fill-rule="evenodd" clip-rule="evenodd" d="M154.614 254.352C154.686 255.464 155.338 256.327 156.07 256.28C156.802 256.234 157.337 255.293 157.265 254.182C157.193 253.069 156.541 252.206 155.809 252.253C155.077 252.3 154.542 253.239 154.614 254.352Z" fill="white"/>
<path fill-rule="evenodd" clip-rule="evenodd" d="M145.348 256.151C145.384 256.707 145.709 257.139 146.076 257.115C146.442 257.091 146.709 256.621 146.674 256.066C146.637 255.51 146.311 255.077 145.946 255.102C145.579 255.124 145.312 255.595 145.348 256.151Z" fill="white"/>
<path fill-rule="evenodd" clip-rule="evenodd" d="M123.769 258.441C123.805 258.997 124.131 259.429 124.497 259.405C124.864 259.382 125.131 258.912 125.095 258.355C125.059 257.8 124.732 257.368 124.367 257.391C124.001 257.415 123.734 257.885 123.769 258.441Z" fill="white"/>
<path fill-rule="evenodd" clip-rule="evenodd" d="M218.081 157.545C218.028 157.658 226.744 161.843 237.547 166.892C248.353 171.942 257.154 175.943 257.206 175.83C257.259 175.717 248.544 171.532 237.738 166.482C226.936 161.433 218.134 157.432 218.081 157.545Z" fill="#112F61"/>
<path fill-rule="evenodd" clip-rule="evenodd" d="M253.34 175.83C253.34 177.395 254.607 178.663 256.17 178.663C257.732 178.663 259 177.395 259 175.83C259 174.265 257.732 172.996 256.17 172.996C254.607 172.996 253.34 174.265 253.34 175.83Z" fill="#112F61"/>
<path fill-rule="evenodd" clip-rule="evenodd" d="M122.585 146.532C122.585 175.992 146.435 199.874 175.855 199.874C205.275 199.874 229.126 175.992 229.126 146.532C229.126 117.071 205.275 93.1892 175.855 93.1892C146.435 93.1892 122.585 117.071 122.585 146.532Z" fill="#F5F5F5"/>
<path fill-rule="evenodd" clip-rule="evenodd" d="M122.585 146.532C122.585 175.992 146.435 199.874 175.855 199.874C205.275 199.874 229.126 175.992 229.126 146.532C229.126 117.071 205.275 93.1892 175.855 93.1892C146.435 93.1892 122.585 117.071 122.585 146.532Z" fill="#F5F5F5"/>
<mask id="mask1_0_2011" style="mask-type:alpha" maskUnits="userSpaceOnUse" x="122" y="93" width="108" height="107">
<path fill-rule="evenodd" clip-rule="evenodd" d="M122.585 146.532C122.585 175.992 146.435 199.874 175.855 199.874C205.275 199.874 229.126 175.992 229.126 146.532C229.126 117.071 205.275 93.1892 175.855 93.1892C146.435 93.1892 122.585 117.071 122.585 146.532Z" fill="white"/>
</mask>
<g mask="url(#mask1_0_2011)">
<rect width="107.188" height="12.9774" transform="matrix(-1 0 0 1 229.768 134.095)" fill="url(#paint9_linear_0_2011)"/>
</g>
<path fill-rule="evenodd" clip-rule="evenodd" d="M146.861 166.081C151.404 166.41 154.401 171.285 158.834 172.332C163.067 173.331 167.025 170.643 171.053 168.575C171.984 169.189 172.996 169.663 174.072 169.948C177.105 170.752 180.385 169.842 182.867 167.877C186.093 169.699 188.941 172.625 192.608 172.689C196.634 172.761 199.905 169.316 203.871 168.626C206.853 168.106 209.857 169.197 212.658 170.344C215.459 171.49 218.364 172.735 221.384 172.534C221.74 172.51 222.099 172.456 222.454 172.379C213.365 188.774 195.908 199.875 175.855 199.875C156.247 199.875 139.126 189.26 129.878 173.464C131.08 173.427 132.263 173.244 133.405 172.839C138.22 171.128 141.767 165.712 146.861 166.081Z" fill="#FECA7B"/>
<path fill-rule="evenodd" clip-rule="evenodd" d="M169.023 146.225C181.216 146.315 196.506 146.375 208.764 146.423C218.46 146.462 226.259 146.492 229.126 146.524V146.532C229.126 155.911 226.7 164.72 222.455 172.378C222.1 172.456 221.741 172.51 221.385 172.534C218.473 172.727 215.67 171.578 212.962 170.468C212.861 170.427 212.76 170.385 212.659 170.344C209.858 169.198 206.853 168.106 203.871 168.625C202.112 168.932 200.489 169.78 198.877 170.623C196.855 171.68 194.849 172.729 192.609 172.69C189.987 172.644 187.783 171.134 185.561 169.611C184.689 169.014 183.815 168.415 182.911 167.901C182.447 168.416 179.422 170.971 175.855 170.344C174.274 170.066 172.592 169.418 171.001 168.602C170.429 168.897 169.858 169.203 169.288 169.51C165.861 171.351 162.449 173.185 158.834 172.331C156.785 171.848 155.043 170.546 153.313 169.253C151.301 167.75 149.305 166.258 146.862 166.081C143.811 165.861 141.316 167.713 138.771 169.603C137.066 170.869 135.338 172.152 133.407 172.839C132.264 173.244 131.08 173.427 129.879 173.464C125.25 165.557 122.584 156.359 122.584 146.532C122.584 146.168 122.592 145.805 122.6 145.443L122.602 145.345C131.016 145.435 147.646 145.619 165.477 145.816L169.276 145.858C169.192 145.981 169.108 146.103 169.023 146.225Z" fill="url(#paint10_linear_0_2011)"/>
<path fill-rule="evenodd" clip-rule="evenodd" d="M193.014 150.436C193.566 149.141 194.963 148.128 196.34 148.406L197.718 148.543C199.288 148.799 200.602 150.053 201.128 151.557C201.655 153.061 201.454 154.762 200.786 156.207C200.116 157.654 199.01 158.864 197.76 159.849C197.4 160.132 197 160.41 196.542 160.435C195.723 160.48 195.102 159.727 194.685 159.019C193.873 157.642 193.272 156.141 192.909 154.584C192.588 153.214 192.462 151.729 193.014 150.436Z" fill="white"/>
<path fill-rule="evenodd" clip-rule="evenodd" d="M206.165 157.509C207.25 157.17 208.417 157.24 209.455 157.703C210.732 158.271 212.304 159.195 212.55 160.37C212.976 162.396 212.125 165.168 211.167 165.915C210.208 166.661 205.524 165.381 204.14 164.635C202.755 163.889 202.223 160.157 202.968 159.091C203.401 158.472 204.946 157.889 206.165 157.509Z" fill="white"/>
<path fill-rule="evenodd" clip-rule="evenodd" d="M211.386 150.796C211.442 150.271 211.66 149.778 211.983 149.364C212.802 148.314 214.309 148.097 215.473 148.741L215.476 148.743C216.693 149.094 217.281 151.121 216.858 152.315C216.434 153.511 215.051 154.239 213.803 154.019C212.348 153.763 211.226 152.267 211.386 150.796Z" fill="white"/>
<path fill-rule="evenodd" clip-rule="evenodd" d="M189.034 165.718C189.09 165.194 189.308 164.699 189.63 164.285C190.45 163.236 191.956 163.019 193.12 163.664L193.123 163.665C194.341 164.016 194.929 166.043 194.505 167.238C194.081 168.433 192.698 169.161 191.45 168.941C189.995 168.685 188.873 167.189 189.034 165.718Z" fill="white"/>
<path fill-rule="evenodd" clip-rule="evenodd" d="M217.489 163.264C217.562 161.956 217.703 160.651 217.91 159.357C218.085 158.263 218.35 157.1 219.161 156.346C219.8 155.752 220.705 155.502 221.577 155.531C222.448 155.559 223.292 155.842 224.087 156.2L224.86 157.392C225.142 158.905 224.824 160.465 224.408 161.947C224.116 162.983 223.769 164.02 223.163 164.907C222.558 165.796 221.662 166.529 220.606 166.73C219.551 166.931 218.349 166.502 217.822 165.566C217.435 164.881 217.444 164.049 217.489 163.264Z" fill="white"/>
<path fill-rule="evenodd" clip-rule="evenodd" d="M148.483 151.395C149.167 149.904 151.263 148.736 152.897 148.618C154.333 148.515 157.284 148.526 159.124 148.881C159.558 148.964 159.931 149.242 160.159 149.623C160.275 149.817 160.344 150.034 160.371 150.258C160.576 151.953 161.085 153.643 160.172 155.079C159.372 156.332 157.964 157.095 156.516 157.425C155.067 157.755 153.562 157.7 152.078 157.636C151.077 157.593 149.988 157.511 149.241 156.842C148.518 156.194 148.302 155.158 148.204 154.191C148.106 153.247 148.088 152.257 148.483 151.395Z" fill="white"/>
<path fill-rule="evenodd" clip-rule="evenodd" d="M179.935 158.955C179.367 157.717 177.628 156.748 176.272 156.65C175.081 156.565 172.632 156.574 171.105 156.868C170.745 156.937 170.435 157.168 170.246 157.484C170.15 157.645 170.093 157.825 170.07 158.011C169.9 159.417 169.478 160.82 170.236 162.011C170.899 163.051 172.068 163.684 173.27 163.958C174.471 164.232 175.72 164.186 176.952 164.133C177.783 164.097 178.686 164.029 179.306 163.474C179.906 162.936 180.085 162.077 180.167 161.274C180.248 160.491 180.262 159.669 179.935 158.955Z" fill="white"/>
<path fill-rule="evenodd" clip-rule="evenodd" d="M157.973 160.996L159.09 161.018C160.267 161.542 160.954 162.984 160.609 164.227C160.264 165.47 158.918 166.35 157.644 166.154C156.37 165.959 155.348 164.703 155.425 163.414C155.504 162.127 156.684 160.999 157.973 160.996Z" fill="white"/>
<path fill-rule="evenodd" clip-rule="evenodd" d="M129.155 148.5L130.271 148.521C131.449 149.046 132.137 150.488 131.792 151.731C131.446 152.973 130.1 153.854 128.826 153.658C127.553 153.462 126.53 152.206 126.608 150.919C126.686 149.63 127.867 148.504 129.155 148.5Z" fill="white"/>
<path fill-rule="evenodd" clip-rule="evenodd" d="M135.724 154.202C135.974 152.921 137.303 152.068 138.604 151.979C139.905 151.89 141.169 152.403 142.331 152.995L143.236 153.615C143.998 154.741 144.768 155.88 145.249 157.152C145.731 158.424 145.903 159.862 145.451 161.145C144.997 162.427 143.829 163.501 142.472 163.584C141.538 163.64 140.625 163.239 139.874 162.681C137.935 161.239 136.953 158.871 136.126 156.6C135.845 155.829 135.566 155.008 135.724 154.202Z" fill="white"/>
<path fill-rule="evenodd" clip-rule="evenodd" d="M129.015 158.809L130.078 158.799C130.936 159.056 131.732 159.559 132.267 160.278C132.801 160.998 133.056 161.939 132.874 162.817C132.693 163.695 132.05 164.482 131.2 164.761C130.348 165.04 129.322 164.756 128.793 164.032C128.444 163.554 128.327 162.948 128.261 162.359C128.124 161.123 128.212 159.76 129.015 158.809Z" fill="white"/>
<path fill-rule="evenodd" clip-rule="evenodd" d="M122.585 146.532C122.585 146.532 122.607 146.239 122.63 145.667C122.666 145.096 122.647 144.244 122.749 143.132C122.887 140.908 123.261 137.625 124.279 133.514C125.331 129.424 127.093 124.493 130.179 119.33C133.26 114.187 137.676 108.806 143.692 104.218C146.687 101.919 150.091 99.8555 153.842 98.1509C157.591 96.449 161.686 95.0822 166.055 94.2963C170.415 93.4914 175.031 93.1762 179.743 93.5452C182.102 93.6859 184.474 94.0706 186.855 94.5429C189.231 95.0527 191.601 95.7352 193.951 96.5705C203.313 99.9675 212.208 106.308 218.617 115.102C225.058 123.836 228.922 134.981 228.9 146.524C228.927 158.071 225.062 169.22 218.62 177.956C212.211 186.753 203.314 193.096 193.951 196.493C191.601 197.328 189.231 198.012 186.855 198.521C184.473 198.994 182.101 199.378 179.741 199.519C175.028 199.888 170.412 199.572 166.052 198.767C161.683 197.981 157.587 196.614 153.839 194.911C150.087 193.206 146.683 191.143 143.688 188.843C137.673 184.254 133.258 178.873 130.178 173.731C127.092 168.568 125.33 163.637 124.279 159.547C123.261 155.438 122.887 152.154 122.749 149.93C122.647 148.82 122.666 147.967 122.63 147.397C122.607 146.824 122.585 146.532 122.585 146.532C122.585 146.532 122.55 147.706 122.658 149.937C122.768 152.166 123.114 155.46 124.108 159.59C125.137 163.7 126.881 168.66 129.961 173.86C133.035 179.04 137.456 184.465 143.495 189.097C146.501 191.418 149.921 193.504 153.694 195.229C157.463 196.951 161.585 198.336 165.983 199.136C170.373 199.954 175.021 200.28 179.77 199.915C182.148 199.777 184.538 199.392 186.939 198.92C189.335 198.409 191.724 197.724 194.093 196.885C203.535 193.472 212.509 187.085 218.977 178.219C225.477 169.414 229.378 158.168 229.351 146.524C229.374 134.884 225.473 123.641 218.973 114.84C212.507 105.976 203.533 99.5915 194.093 96.1798C191.724 95.3392 189.336 94.6541 186.94 94.1444C184.539 93.6711 182.149 93.2873 179.771 93.1484C175.024 92.7837 170.376 93.1093 165.986 93.9273C161.588 94.727 157.467 96.112 153.697 97.8331C149.925 99.5576 146.505 101.643 143.497 103.965C137.458 108.596 133.038 114.021 129.963 119.201C126.882 124.401 125.138 129.361 124.109 133.472C123.114 137.603 122.768 140.897 122.658 143.127C122.55 145.358 122.585 146.532 122.585 146.532Z" fill="#112F61"/>
<path d="M161.78 134.146C159.942 132.021 160.381 128.405 162.086 125.827C163.794 123.251 166.479 121.519 169.152 120.081L171.504 119.166C174.52 119.174 177.569 119.183 180.432 119.909C183.298 120.638 186.006 122.163 187.554 124.672C189.101 127.183 189.271 130.778 187.473 133.454C186.234 135.294 184.243 136.506 182.215 137.209C176.98 139.025 171.525 137.83 166.456 136.474C164.734 136.011 162.933 135.482 161.78 134.146Z" fill="#0461FB"/>
<defs>
<filter id="filter0_d_0_2011" x="164.919" y="178.244" width="67.0811" height="50.7565" filterUnits="userSpaceOnUse" color-interpolation-filters="sRGB">
<feFlood flood-opacity="0" result="BackgroundImageFix"/>
<feColorMatrix in="SourceAlpha" type="matrix" values="0 0 0 0 0 0 0 0 0 0 0 0 0 0 0 0 0 0 127 0" result="hardAlpha"/>
<feOffset dy="22"/>
<feGaussianBlur stdDeviation="12"/>
<feColorMatrix type="matrix" values="0 0 0 0 0.286511 0 0 0 0 0.286511 0 0 0 0 0.286511 0 0 0 0.0446954 0"/>
<feBlend mode="normal" in2="BackgroundImageFix" result="effect1_dropShadow_0_2011"/>
<feBlend mode="normal" in="SourceGraphic" in2="effect1_dropShadow_0_2011" result="shape"/>
</filter>
<linearGradient id="paint0_linear_0_2011" x1="382.685" y1="70.2463" x2="361.086" y2="70.2463" gradientUnits="userSpaceOnUse">
<stop stop-color="#69BEFC"/>
<stop offset="1" stop-color="#3CA7FB"/>
</linearGradient>
<linearGradient id="paint1_linear_0_2011" x1="382.685" y1="105.91" x2="361.086" y2="105.91" gradientUnits="userSpaceOnUse">
<stop stop-color="#69BEFC"/>
<stop offset="1" stop-color="#3CA7FB"/>
</linearGradient>
<linearGradient id="paint2_linear_0_2011" x1="382.685" y1="143.735" x2="361.086" y2="143.735" gradientUnits="userSpaceOnUse">
<stop stop-color="#69BEFC"/>
<stop offset="1" stop-color="#3CA7FB"/>
</linearGradient>
<linearGradient id="paint3_linear_0_2011" x1="382.685" y1="178.318" x2="360.006" y2="178.318" gradientUnits="userSpaceOnUse">
<stop stop-color="#69BEFC"/>
<stop offset="1" stop-color="#3CA7FB"/>
</linearGradient>
<linearGradient id="paint4_linear_0_2011" x1="382.685" y1="218.304" x2="360.006" y2="218.304" gradientUnits="userSpaceOnUse">
<stop stop-color="#69BEFC"/>
<stop offset="1" stop-color="#3CA7FB"/>
</linearGradient>
<linearGradient id="paint5_linear_0_2011" x1="179.039" y1="283" x2="190.962" y2="283" gradientUnits="userSpaceOnUse">
<stop stop-color="#69BEFC"/>
<stop offset="1" stop-color="#3CA7FB"/>
</linearGradient>
<linearGradient id="paint6_linear_0_2011" x1="164" y1="298.037" x2="206" y2="298.037" gradientUnits="userSpaceOnUse">
<stop stop-color="#69BEFC"/>
<stop offset="1" stop-color="#3CA7FB"/>
</linearGradient>
<linearGradient id="paint7_linear_0_2011" x1="137.536" y1="274.443" x2="158.14" y2="303.698" gradientUnits="userSpaceOnUse">
<stop stop-color="#F9C762"/>
<stop offset="1" stop-color="#F19533"/>
</linearGradient>
<linearGradient id="paint8_linear_0_2011" x1="196.569" y1="275.24" x2="215.945" y2="303.501" gradientUnits="userSpaceOnUse">
<stop stop-color="#F9C762"/>
<stop offset="1" stop-color="#F19533"/>
</linearGradient>
<linearGradient id="paint9_linear_0_2011" x1="57.6265" y1="-1.3104" x2="54.7056" y2="18.4568" gradientUnits="userSpaceOnUse">
<stop stop-color="#F3AF44"/>
<stop offset="1" stop-color="#F19533"/>
</linearGradient>
<linearGradient id="paint10_linear_0_2011" x1="171.847" y1="142.506" x2="184.619" y2="182.158" gradientUnits="userSpaceOnUse">
<stop stop-color="#F9C762"/>
<stop offset="1" stop-color="#F19533"/>
</linearGradient>
</defs>
</svg>
